<svg width="178" height="40" viewBox="0 0 178 40" fill="none" xmlns="http://www.w3.org/2000/svg">
<path fill-rule="evenodd" clip-rule="evenodd" d="M37.3209 24.1398V18.6645L37.3111 17.3824V12.9176C37.3111 12.6411 37.1884 12.3897 36.997 12.2188C36.5896 11.8618 35.6522 12.0579 35.1319 12.1635C32.5159 12.6964 32.9233 14.4813 32.9233 18.6092V23.984C32.9233 25.7487 33.2227 27.0258 33.7822 27.775C34.2828 28.4437 35.0534 28.866 36.0939 29.042C36.516 29.1124 36.781 29.0973 37.2227 29.0973H55.3384C55.8292 29.0973 56.2317 28.685 56.2317 28.1822V24.2504C56.2317 22.4857 55.9323 21.2538 55.3728 20.4594C54.6856 19.6248 53.5224 19.1824 51.888 19.1824H46.9014C46.818 19.1824 46.7297 19.1824 46.602 19.1824C46.4744 19.1824 46.3861 19.1824 46.3027 19.1824C45.483 19.1824 44.9677 19.0516 44.6683 18.8757C44.2364 18.6092 44.0253 18.036 44.0253 17.1561C44.0253 16.1003 44.2854 15.4366 44.8008 15.0847C45.1885 14.8634 45.8757 14.7327 46.9063 14.7327H53.1592C54.6954 14.7327 54.5727 14.6221 55.1862 15.7584C57.4096 19.8611 59.5888 23.989 61.9005 28.0414C62.5778 29.228 62.4207 29.0973 64.0257 29.0973H73.616C75.2504 29.0973 76.4136 28.6548 77.1007 27.775C77.6603 27.0258 77.9204 25.7487 77.9204 23.984V17.1964C77.9204 15.3913 77.6603 14.1545 77.1007 13.4053C76.4136 12.5255 75.2504 12.083 73.616 12.083H64.8944C64.4036 12.083 64.0011 12.4953 64.0011 12.9981V19.6097C64.0011 20.6455 65.0416 20.5248 65.7337 20.4594C68.6294 20.1829 68.3448 19.0818 68.3448 17.0053V14.6271H70.7104C71.7411 14.6271 72.4332 14.7578 72.7767 15.0243C73.3363 15.331 73.5915 16.0399 73.5915 17.0505V24.2756C73.5915 25.2007 73.3313 25.8191 72.7767 26.1258C72.389 26.3471 71.7019 26.4778 70.7104 26.4778L64.8699 26.4677C63.9717 26.4677 64.0208 26.4225 63.5938 25.6381C61.2968 21.4097 59.1127 17.3824 56.8206 13.154C56.2955 12.1886 56.1826 12.1132 55.0832 12.1132C54.3961 12.1132 53.8954 12.1132 53.2034 12.1132C50.1359 12.1132 47.0683 12.1132 44.0008 12.1132C42.3222 12.1132 41.1639 12.5959 40.5161 13.4808C39.9565 14.2299 39.6571 15.507 39.6571 17.312C39.6571 19.0315 39.9565 20.2181 40.5602 20.8365C41.1639 21.4097 42.3222 21.7164 44.0008 21.7164H48.9923C50.1947 21.7164 51.0144 21.9376 51.358 22.3348C51.7015 22.6868 51.8733 23.5264 51.8733 24.8035V25.5627C51.8733 26.0655 51.4708 26.4778 50.98 26.4778H39.6768C38.6461 26.4778 37.905 26.2716 37.5369 25.5828C37.2718 25.1001 37.3209 24.6828 37.3209 24.1398ZM108.959 29.0118H117.656C119.335 29.0118 120.493 28.5694 121.141 27.6895C121.7 26.9403 122 25.6633 122 23.8985V17.2014C122 15.3964 121.7 14.1595 121.141 13.4104C120.498 12.5305 119.335 12.088 117.656 12.088H108.959C108.468 12.088 108.066 12.5003 108.066 13.0031V13.7221C108.066 14.2249 108.468 14.6372 108.959 14.6372H114.775C115.806 14.6372 116.498 14.7679 116.881 15.0344C117.396 15.3411 117.656 16.05 117.656 17.0606V24.2002C117.656 25.1253 117.396 25.7437 116.881 26.0504C116.493 26.2716 115.762 26.4024 114.775 26.4024H108.959C108.468 26.4024 108.066 26.8146 108.066 27.3174V28.0817C108.066 28.5945 108.468 29.0068 108.959 29.0118ZM68.6245 35H68.4871C67.9963 35 67.5938 34.5877 67.5938 34.0849V31.5559C67.5938 31.0531 67.9963 30.6408 68.4871 30.6408H70.9559C71.4467 30.6408 71.8491 31.0531 71.8491 31.5559V31.6967C71.8491 33.5017 70.3865 35 68.6245 35ZM100.704 25.4923V25.5175C100.689 26.0102 100.291 26.4074 99.8103 26.4074H89.7881C88.7083 26.4074 87.6432 26.5783 86.8629 26.0554C86.3475 25.7487 86.0874 25.1756 86.0874 24.2504V12.9176C86.0874 12.6411 85.9647 12.3897 85.7733 12.2188C85.3659 11.8618 84.4285 12.0579 83.9082 12.1635C81.2922 12.6964 81.6996 14.4813 81.6996 18.6092V23.8985C81.6996 25.7035 81.999 26.9403 82.6027 27.6895C83.118 28.4386 84.0211 28.9213 85.3119 29.0118H104.159C104.65 29.0118 105.052 28.5995 105.052 28.0967V24.2052C105.052 22.4404 104.753 21.1633 104.193 20.4142C103.506 19.5343 102.343 19.0919 100.664 19.0919H95.717C95.6287 19.0919 95.5452 19.0919 95.4176 19.0919C95.29 19.0919 95.1575 19.0919 95.1182 19.0919C94.2986 19.0919 93.744 19.0014 93.4838 18.8254C93.0519 18.5187 92.8409 17.9455 92.8409 17.0606C92.8409 16.045 93.101 15.3411 93.6164 15.0344C94.0041 14.7679 94.6912 14.6372 95.7219 14.6372H103.31C103.801 14.6372 104.203 14.2249 104.203 13.7221V13.0031C104.203 12.5003 103.801 12.088 103.31 12.088H92.8409C91.1623 12.088 90.004 12.5305 89.3562 13.4104C88.7967 14.1595 88.4973 15.4366 88.4973 17.2416C88.4973 19.0064 88.7966 20.193 89.4003 20.7661C90.004 21.3846 91.1623 21.6913 92.8409 21.6913H97.8324C99.0349 21.6913 99.8103 21.8672 100.198 22.2644C100.542 22.6616 100.713 23.456 100.713 24.7331C100.709 24.9744 100.709 25.2208 100.704 25.4923Z" fill="white"/>
<path fill-rule="evenodd" clip-rule="evenodd" d="M20.5451 5.03897H20.6826C21.1734 5.03897 21.5758 5.45125 21.5758 5.95404V8.48305C21.5758 8.98584 21.1734 9.39812 20.6826 9.39812H18.2138C17.723 9.39812 17.3205 8.98584 17.3205 8.48305V8.34227C17.3205 6.53727 18.7831 5.03897 20.5451 5.03897ZM0.893267 29.0973H11.6763C12.4419 29.0973 12.653 29.0219 13.0162 28.3632C13.1929 28.0414 13.2076 27.9761 13.345 27.6342C13.4186 27.4481 13.4432 27.9409 13.4579 28.4085C13.4775 28.9565 13.5659 29.0721 13.8702 29.0923H17.2764C17.4923 29.0923 17.6641 29.0973 17.8359 29.0923H24.2213C24.6581 29.0923 24.928 29.1073 25.3501 29.0369C26.3956 28.861 27.1661 28.4386 27.6618 27.7699C28.2214 27.0208 28.5207 25.7437 28.5207 23.9789V11.0121L28.5109 10.3735V5.90376C28.5109 5.62723 28.3882 5.37583 28.1968 5.20489C27.7894 4.84791 26.852 5.04399 26.3317 5.14958C23.7158 5.68253 24.1231 6.82386 24.1231 10.9517V24.1348C24.1231 24.6778 24.1722 25.0951 23.9072 25.5979C23.5881 26.2012 22.9844 26.4325 22.1501 26.4828V26.4928H21.2912C21.4728 25.8141 21.5709 24.9744 21.5709 23.9789V18.7298L21.5611 17.4477V12.993C21.5611 12.7165 21.4384 12.4651 21.247 12.2942C20.8396 11.9372 19.9022 12.1333 19.3819 12.2389C16.7659 12.7718 17.1733 14.5567 17.1733 18.6846V24.1398C17.1733 24.6828 17.2224 25.1001 16.9573 25.6029C16.6383 26.2063 16.0346 26.4375 15.2003 26.4878V26.4979H13.6493C13.8309 25.8191 13.9291 24.9795 13.9291 23.9839V17.1963C13.9291 15.3913 13.6297 14.1545 13.0702 13.4053C12.4272 12.5254 11.264 12.083 9.58544 12.083H0.893267C0.402461 12.083 0 12.4953 0 12.9981V13.7171C0 14.2198 0.402461 14.6321 0.893267 14.6321H6.70932C7.74001 14.6321 8.43205 14.7628 8.81488 15.0293C9.33022 15.336 9.59035 16.045 9.59035 17.0556V24.2806C9.59035 25.2057 9.33022 25.8241 8.81488 26.1308C8.42714 26.3521 7.69584 26.4828 6.70932 26.4828H0.893267C0.402461 26.4828 0 26.8951 0 27.3979V28.1621C0 28.685 0.402461 29.0973 0.893267 29.0973Z" fill="white"/>
<path fill-rule="evenodd" clip-rule="evenodd" d="M158 0C169.043 0 178 8.95181 178 20C178 31.0432 169.048 40 158 40C146.957 40 138 31.0482 138 20C138 19.8659 138.005 19.7317 138.005 19.5976C153.385 11.4456 173.276 15.39 155.586 35.1614C163.609 31.2022 169.764 25.5936 171.294 20.4223C173.787 11.9722 166.947 8.83259 157.851 9.6622C150.578 10.3279 143.718 13.1446 138.189 17.233C139.54 7.49627 147.891 0 158 0Z" fill="white"/>
</svg>
